<svg viewBox="0 0 900 620" xmlns="http://www.w3.org/2000/svg" font-family="Helvetica, Arial, sans-serif">
  <rect width="900" height="620" fill="#ffffff"/>
  <rect x="1" y="1" width="898" height="618" fill="none" stroke="#999" stroke-width="1"/>

  <text x="20" y="26" font-size="13" fill="#999">wireframe · 02 · cadastro.html</text>

  <!-- painel esquerdo (marca) -->
  <rect x="20" y="50" width="330" height="540" fill="#e3e3e3" stroke="#888" stroke-width="1.5"/>
  <rect x="55" y="90" width="60" height="60" fill="#bbb" stroke="#777"/>
  <text x="55" y="175" font-size="16" fill="#555">[marca / logo]</text>
  <line x1="55" y1="210" x2="290" y2="210" stroke="#999" stroke-width="2"/>
  <line x1="55" y1="230" x2="260" y2="230" stroke="#bbb" stroke-width="2"/>

  <!-- painel direito (form) -->
  <rect x="380" y="50" width="500" height="540" fill="#ffffff" stroke="#888" stroke-width="1.5"/>

  <text x="420" y="120" font-size="26" fill="#333">Criar conta</text>
  <line x1="420" y1="145" x2="620" y2="145" stroke="#ccc" stroke-width="1"/>

  <text x="420" y="180" font-size="13" fill="#666">Label: Nome completo</text>
  <rect x="420" y="190" width="420" height="42" fill="#f2f2f2" stroke="#999"/>

  <text x="420" y="255" font-size="13" fill="#666">Label: E-mail</text>
  <rect x="420" y="265" width="420" height="42" fill="#f2f2f2" stroke="#999"/>

  <text x="420" y="330" font-size="13" fill="#666">Label: Senha</text>
  <rect x="420" y="340" width="420" height="42" fill="#f2f2f2" stroke="#999"/>
  <text x="850" y="365" font-size="10" fill="#aaa" text-anchor="end">[força]</text>

  <text x="420" y="405" font-size="13" fill="#666">Label: Confirmar senha</text>
  <rect x="420" y="415" width="420" height="42" fill="#f2f2f2" stroke="#999"/>

  <rect x="420" y="480" width="180" height="46" fill="#999" stroke="#666"/>
  <text x="445" y="508" font-size="14" fill="#fff">[Criar conta]</text>

  <text x="420" y="555" font-size="13" fill="#777">Já tem conta? [Entrar] →</text>

  <text x="420" y="595" font-size="11" fill="#aaa">* validação JS: obrigatórios, e-mail válido, senha mín. 6 chars,</text>
  <text x="420" y="608" font-size="11" fill="#aaa">confirmação igual à senha, e-mail duplicado (mock local)</text>
</svg>
